<?xml version="1.0" standalone="no"?>
<!DOCTYPE svg PUBLIC "-//W3C//DTD SVG 20010904//EN"
 "http://www.w3.org/TR/2001/REC-SVG-20010904/DTD/svg10.dtd">
<svg version="1.0" xmlns="http://www.w3.org/2000/svg"
 width="756.000000pt" height="756.000000pt" viewBox="0 0 756.000000 756.000000"
 preserveAspectRatio="xMidYMid meet">
<metadata>
Created by potrace 1.11, written by Peter Selinger 2001-2013
</metadata>
<g transform="translate(0.000000,756.000000) scale(0.100000,-0.100000)"
fill="#000000" stroke="none">
<path d="M2614 7539 c-3 -5 -9 -7 -14 -4 -5 3 -12 0 -15 -6 -4 -5 -13 -8 -20
-5 -8 3 -15 1 -17 -4 -2 -5 -14 -11 -27 -13 -14 -2 -27 -9 -29 -15 -2 -7 -7
-10 -12 -7 -5 3 -16 -2 -24 -11 -9 -8 -16 -12 -16 -7 0 4 -5 0 -11 -10 -6 -9
-14 -15 -20 -12 -5 4 -9 1 -9 -5 0 -6 -5 -8 -12 -4 -7 4 -8 3 -4 -5 9 -14 -20
-45 -34 -36 -6 4 -10 3 -9 -2 3 -19 -2 -34 -10 -28 -5 3 -13 -4 -16 -16 -4
-13 -12 -18 -21 -15 -8 3 -13 2 -10 -3 3 -5 -5 -20 -18 -34 -13 -14 -21 -28
-18 -31 3 -3 1 -6 -5 -6 -6 0 -16 -13 -23 -30 -7 -16 -17 -30 -23 -30 -6 0 -7
-3 -4 -7 4 -3 -1 -12 -11 -20 -9 -8 -11 -12 -5 -8 9 4 11 1 7 -9 -3 -9 -10
-16 -16 -16 -5 0 -8 -8 -6 -17 2 -10 -2 -17 -7 -16 -6 1 -12 -10 -13 -25 -1
-14 -8 -29 -15 -34 -6 -4 -9 -8 -4 -8 4 0 0 -17 -8 -37 -9 -20 -13 -43 -11
-50 3 -7 -1 -13 -8 -13 -8 0 -12 -9 -11 -25 2 -14 -1 -25 -7 -25 -6 0 -6 -6 2
-15 10 -12 9 -16 -3 -21 -10 -4 -14 -17 -12 -42 1 -20 -2 -46 -8 -57 -11 -21
-17 -585 -6 -585 7 0 9 -11 12 -76 2 -27 7 -56 12 -64 5 -8 10 -28 12 -45 4
-34 11 -70 13 -70 1 0 3 -11 5 -25 1 -14 7 -36 12 -50 6 -14 9 -33 7 -43 -1
-9 2 -15 6 -12 5 3 9 -3 9 -12 -1 -27 10 -73 23 -97 6 -12 11 -23 10 -26 -4
-17 23 -78 32 -73 6 4 5 -1 -3 -10 -9 -11 -10 -17 -2 -17 6 0 11 -9 11 -20 0
-11 5 -20 11 -20 5 0 8 -4 5 -8 -3 -5 1 -20 9 -35 8 -16 10 -27 4 -27 -6 0 -3
-7 5 -16 9 -8 16 -22 16 -30 0 -8 7 -17 16 -21 13 -5 13 -7 2 -14 -10 -7 -11
-9 0 -9 7 0 10 -4 7 -10 -3 -5 -1 -10 5 -10 7 0 10 -7 6 -15 -3 -8 -1 -15 4
-15 6 0 10 -7 10 -15 0 -8 5 -15 11 -15 5 0 8 -4 5 -9 -3 -5 1 -12 10 -15 8
-3 12 -11 9 -17 -4 -5 -1 -18 7 -27 27 -34 39 -62 27 -62 -7 0 -2 -8 9 -19 12
-10 19 -21 15 -25 -3 -3 -1 -6 6 -6 8 0 11 -6 7 -16 -3 -8 -2 -13 3 -10 11 7
23 -22 15 -35 -3 -5 0 -8 8 -7 7 2 12 -3 10 -9 -1 -7 3 -13 9 -13 5 0 8 -4 4
-9 -3 -5 2 -16 10 -24 8 -9 15 -20 15 -26 0 -6 5 -11 10 -11 6 0 9 -3 9 -7 -4
-22 2 -33 14 -27 6 4 9 3 4 -1 -4 -5 0 -19 9 -33 12 -18 12 -23 3 -17 -8 3 -5
-1 6 -10 11 -9 20 -20 20 -26 0 -5 5 -13 11 -17 6 -4 10 -15 8 -25 -1 -9 2
-15 6 -12 5 3 11 1 15 -5 3 -5 1 -10 -6 -10 -6 0 -1 -9 12 -21 13 -11 18 -17
11 -14 -11 6 -11 3 -1 -13 7 -12 17 -18 23 -15 5 3 6 2 3 -4 -3 -5 3 -24 14
-42 11 -18 17 -36 14 -42 -4 -5 -2 -9 3 -9 12 0 53 -76 45 -84 -3 -3 -1 -6 5
-6 7 0 11 -3 10 -7 -1 -5 3 -18 10 -30 7 -13 9 -23 5 -23 -4 0 -3 -4 3 -8 14
-9 78 -135 64 -127 -6 4 -6 -4 2 -19 6 -14 15 -26 20 -26 5 0 7 -4 4 -9 -4 -5
-1 -22 6 -38 6 -15 10 -32 9 -37 -1 -4 3 -14 9 -20 5 -7 7 -16 3 -19 -3 -4 -2
-7 3 -7 5 0 10 -19 11 -42 1 -22 6 -44 10 -47 5 -3 8 -49 7 -101 -1 -119 -1
-116 -20 -134 -9 -9 -11 -16 -4 -16 6 0 8 -5 5 -10 -4 -6 -11 -8 -16 -5 -5 4
-9 2 -9 -3 0 -4 -22 -8 -50 -8 -27 -1 -50 3 -50 8 0 4 -5 8 -10 8 -20 0 -53
39 -46 55 3 9 2 13 -4 10 -6 -3 -10 -1 -10 5 0 6 -5 8 -12 4 -7 -4 -8 -3 -4 5
4 6 0 19 -10 28 -11 12 -13 18 -5 21 7 2 3 11 -10 23 -12 10 -18 19 -13 19 5
0 1 7 -9 14 -11 9 -14 17 -8 21 7 4 4 14 -9 27 -11 12 -17 24 -15 28 3 5 -2
21 -10 36 -8 16 -15 37 -15 47 0 9 -4 17 -8 17 -5 0 -9 6 -10 13 0 6 -3 19 -5
27 -2 8 -7 32 -11 52 -5 21 -11 36 -15 33 -4 -2 -7 9 -6 25 1 17 -2 30 -8 30
-5 0 -7 6 -4 14 3 7 0 19 -6 25 -6 6 -8 11 -4 11 4 0 2 10 -4 23 -7 12 -14 35
-16 51 -2 17 -8 33 -13 36 -6 4 -8 14 -5 22 3 8 -1 23 -10 32 -12 12 -13 16
-3 16 11 0 11 2 0 9 -8 4 -13 11 -13 15 3 19 0 27 -8 22 -5 -4 -7 3 -4 13 3
10 -1 30 -8 42 -7 13 -12 30 -11 37 2 6 -2 12 -8 12 -6 0 -8 5 -5 10 3 6 1 10
-5 10 -6 0 -9 4 -5 9 3 5 -2 16 -10 24 -8 9 -15 23 -15 31 0 9 -4 16 -10 16
-5 0 -10 9 -10 20 0 11 -4 20 -10 20 -5 0 -10 9 -10 21 0 13 -4 18 -12 13 -8
-5 -9 -2 -5 10 5 13 3 17 -7 13 -10 -4 -13 -1 -9 9 3 7 0 14 -7 14 -7 0 -10 7
-7 14 4 9 -2 17 -14 21 -17 6 -23 17 -20 37 0 4 -6 5 -14 2 -9 -4 -19 3 -26
20 -7 14 -16 23 -21 20 -4 -3 -12 5 -17 18 -6 13 -10 19 -10 15 -1 -4 -10 1
-22 12 -13 11 -18 24 -14 32 5 7 4 10 -3 5 -6 -3 -17 0 -25 8 -8 8 -17 12 -21
9 -3 -4 -6 1 -6 9 0 12 -6 14 -22 10 -13 -3 -19 -1 -15 5 4 6 -1 10 -11 9 -9
0 -16 5 -14 12 1 6 -1 11 -5 11 -5 -1 -10 -1 -13 1 -3 1 -16 3 -29 6 -14 2
-30 9 -36 14 -7 5 -15 7 -18 3 -4 -3 -7 -2 -7 4 0 6 -13 10 -30 9 -16 -1 -30
2 -30 7 0 15 -261 5 -267 -10 -3 -7 -9 -11 -13 -8 -5 3 -11 1 -15 -5 -3 -5
-16 -10 -29 -10 -13 0 -33 -9 -46 -20 -22 -19 -35 -24 -53 -21 -5 1 -6 -3 -3
-8 6 -9 -22 -26 -36 -23 -5 1 -8 -3 -8 -9 0 -17 -29 -41 -40 -34 -6 4 -10 3
-9 -2 3 -20 -2 -33 -13 -31 -7 2 -12 -2 -11 -9 2 -6 -6 -15 -17 -18 -11 -4
-20 -13 -20 -21 0 -9 -5 -12 -12 -8 -8 5 -9 2 -5 -10 4 -9 3 -15 -2 -12 -5 3
-14 -1 -21 -9 -7 -8 -9 -15 -6 -15 4 0 1 -6 -6 -14 -21 -21 -41 -53 -40 -62 0
-5 -7 -17 -15 -26 -9 -10 -13 -18 -9 -18 4 0 0 -7 -8 -16 -9 -8 -14 -20 -10
-25 3 -5 -1 -11 -8 -14 -8 -3 -14 -18 -13 -33 0 -15 -3 -30 -8 -33 -5 -3 -9
-21 -11 -38 -1 -18 -7 -36 -12 -39 -12 -9 -11 -353 1 -372 5 -8 10 -26 11 -40
3 -25 11 -63 14 -67 4 -4 7 -22 9 -39 0 -8 5 -13 10 -10 5 4 7 -3 4 -14 -3
-11 0 -26 6 -33 6 -8 8 -17 4 -20 -3 -4 0 -7 7 -7 7 0 10 -3 7 -7 -4 -3 0 -17
8 -30 9 -13 11 -23 5 -23 -6 0 -2 -10 9 -22 11 -11 18 -25 15 -30 -3 -4 1 -11
10 -14 8 -3 13 -14 11 -25 -2 -10 2 -24 9 -31 7 -7 14 -17 16 -23 17 -48 25
-65 31 -65 4 0 12 -13 19 -30 7 -17 17 -30 22 -30 5 0 7 -4 3 -9 -3 -5 2 -17
11 -25 8 -9 12 -16 7 -16 -4 0 0 -5 10 -11 9 -5 17 -16 17 -24 0 -7 3 -15 8
-17 4 -1 17 -18 30 -35 15 -22 18 -33 10 -34 -7 -1 -2 -4 12 -8 14 -4 26 -12
26 -19 1 -7 3 -15 4 -19 1 -5 2 -11 1 -15 0 -5 3 -7 7 -5 10 3 62 -49 62 -63
0 -5 5 -10 10 -10 6 0 10 -5 10 -11 0 -14 26 -39 41 -39 7 0 10 -3 6 -6 -8 -8
38 -54 54 -54 7 0 9 -3 6 -6 -3 -4 7 -19 23 -34 16 -15 26 -31 22 -35 -4 -3
-2 -6 3 -5 27 6 37 -1 32 -21 -3 -12 -3 -18 0 -15 4 3 13 0 22 -7 14 -11 15
-10 1 8 -9 11 0 7 23 -10 20 -17 35 -36 32 -43 -3 -7 -1 -11 4 -8 10 7 57 -33
54 -45 -2 -4 4 -6 12 -3 8 4 15 1 15 -4 0 -6 18 -21 40 -33 22 -13 40 -26 40
-31 0 -4 9 -8 21 -8 11 0 17 -4 14 -10 -3 -5 1 -10 9 -10 9 0 16 -4 16 -10 0
-5 3 -9 8 -9 20 3 32 -2 26 -13 -4 -6 -3 -8 4 -4 6 3 22 -5 36 -19 16 -16 26
-20 29 -12 4 9 6 9 6 0 1 -7 8 -13 16 -13 8 0 15 -5 15 -11 0 -5 4 -8 9 -4 5
3 12 1 16 -5 4 -6 11 -8 16 -5 5 4 9 1 9 -4 0 -6 7 -11 15 -11 8 0 15 -5 15
-11 0 -5 4 -8 9 -4 5 3 17 -2 25 -11 9 -8 16 -11 16 -5 0 6 9 2 20 -9 12 -12
25 -18 30 -15 6 4 10 2 10 -4 0 -5 9 -13 20 -16 11 -4 18 -11 15 -16 -3 -5 0
-6 8 -3 8 3 21 -2 30 -10 8 -8 18 -12 22 -8 5 4 6 0 2 -9 -4 -13 -1 -16 15
-11 13 3 26 -1 33 -11 6 -9 18 -17 25 -19 20 -4 39 -22 33 -30 -4 -7 20 -12
40 -9 5 1 6 -3 3 -8 -4 -5 3 -16 15 -24 15 -11 17 -16 7 -20 -7 -3 -3 -6 10
-6 13 -1 22 -7 22 -17 0 -10 5 -14 16 -10 8 3 13 2 10 -3 -3 -5 1 -14 9 -21 8
-7 12 -16 9 -21 -3 -5 2 -9 11 -9 9 0 13 -4 10 -10 -3 -5 -2 -10 3 -10 8 0 32
-40 38 -62 1 -5 3 -9 4 -10 1 -2 3 -50 4 -107 2 -96 0 -106 -20 -127 -13 -12
-20 -24 -17 -27 2 -3 -3 -4 -14 -3 -10 2 -30 0 -45 -5 -15 -4 -30 -4 -33 1 -3
4 -13 7 -22 6 -10 -2 -26 5 -37 16 -11 10 -27 18 -36 18 -9 0 -26 9 -38 20
-14 14 -22 16 -22 8 0 -8 -5 -6 -11 5 -6 9 -15 15 -20 11 -5 -3 -9 -2 -8 3 4
21 -2 33 -17 33 -8 0 -12 5 -9 10 3 6 0 10 -8 10 -8 0 -18 7 -21 16 -3 9 -11
12 -18 8 -8 -5 -9 -2 -5 10 5 13 1 19 -13 23 -11 3 -20 9 -20 14 0 5 -7 9 -16
9 -8 0 -13 3 -11 8 2 4 -7 17 -19 29 -15 14 -25 17 -28 10 -2 -7 -5 -4 -5 6
-1 10 -5 16 -9 13 -4 -2 -17 9 -27 25 -11 16 -26 29 -32 29 -7 0 -21 8 -32 18
-29 27 -64 52 -73 52 -4 0 -8 6 -8 13 0 8 -6 14 -12 15 -31 2 -48 9 -47 17 1
9 -68 47 -88 48 -7 0 -13 3 -13 7 0 4 -19 13 -42 19 -24 7 -47 17 -53 21 -5 4
-21 10 -35 12 -14 1 -27 6 -30 10 -3 4 -17 8 -30 10 -14 2 -30 6 -35 10 -15 9
-275 9 -275 0 0 -4 -9 -9 -20 -10 -43 -4 -50 -6 -50 -14 0 -4 -9 -8 -20 -8
-11 0 -28 -8 -38 -18 -10 -9 -27 -19 -37 -20 -11 -2 -22 -8 -23 -13 -2 -5 -7
-7 -12 -4 -5 3 -11 -4 -15 -15 -4 -11 -10 -18 -15 -15 -5 3 -15 -4 -23 -15 -7
-11 -17 -17 -21 -13 -4 4 -4 -1 0 -11 5 -12 4 -17 -3 -13 -12 8 -56 -36 -46
-46 3 -4 1 -7 -6 -7 -7 0 -10 -4 -6 -9 3 -6 -2 -14 -11 -19 -9 -5 -17 -20 -17
-35 -1 -14 -4 -23 -6 -21 -9 9 -29 -18 -24 -32 3 -8 1 -14 -5 -14 -6 0 -9 -8
-8 -17 2 -10 -2 -31 -9 -48 -15 -39 -12 -223 3 -253 10 -16 10 -22 1 -22 -8 0
-8 -4 1 -15 6 -8 9 -19 5 -25 -3 -5 -2 -10 3 -10 6 0 13 -16 16 -35 5 -22 11
-33 18 -29 6 4 8 3 5 -4 -10 -15 3 -43 17 -35 6 3 8 3 4 -2 -7 -8 39 -97 54
-103 4 -2 8 -11 8 -19 0 -9 3 -13 6 -10 7 7 64 -52 64 -66 0 -5 5 -5 12 -1 8
5 9 2 4 -11 -6 -16 -4 -16 11 -4 9 8 14 9 11 4 -4 -6 0 -19 8 -30 8 -10 14
-15 14 -11 0 4 7 1 15 -8 8 -8 15 -20 15 -26 0 -7 7 -10 14 -7 9 4 17 -1 20
-11 4 -10 16 -18 28 -19 12 -1 28 -10 37 -19 15 -17 15 -17 -4 -3 -18 13 -19
13 -6 -3 7 -10 17 -16 21 -13 5 3 15 -2 23 -10 9 -8 22 -15 30 -15 9 0 17 -4
19 -9 2 -5 10 -11 18 -13 8 -2 21 -11 28 -21 12 -15 16 -16 30 -5 12 10 14 10
8 1 -5 -9 0 -13 13 -13 12 0 21 -6 21 -12 0 -9 4 -8 10 2 6 10 10 11 10 3 0
-7 9 -13 19 -13 11 0 22 -6 24 -12 4 -10 6 -9 6 1 1 10 7 7 20 -8 14 -16 21
-18 24 -9 4 10 6 10 6 1 1 -8 14 -13 31 -13 17 0 30 -5 30 -12 0 -10 2 -10 9
0 6 11 10 10 15 -3 5 -14 9 -15 21 -5 12 10 15 10 15 -1 0 -9 14 -15 42 -16
23 -2 45 -8 49 -14 5 -8 8 -7 13 2 5 11 7 11 12 2 3 -7 17 -13 30 -13 13 0 24
-6 24 -12 0 -9 4 -8 11 2 8 11 12 12 16 3 2 -8 22 -13 44 -13 24 0 39 -5 39
-12 0 -9 4 -8 10 2 6 10 10 11 10 3 0 -8 15 -13 40 -13 25 0 40 -5 40 -12 0
-9 4 -8 10 2 6 10 10 11 10 3 0 -7 9 -13 20 -13 11 0 20 -4 20 -10 0 -5 5 -10
11 -10 5 0 7 6 3 13 -6 9 -4 9 7 0 7 -7 26 -13 41 -13 16 0 28 -6 28 -12 0 -9
4 -8 10 2 6 9 13 11 18 5 10 -14 55 -39 47 -26 -3 6 -1 11 4 11 6 0 11 -4 11
-10 0 -5 13 -10 29 -10 16 0 32 -6 34 -12 4 -10 6 -9 6 1 1 10 7 7 20 -8 14
-16 21 -18 24 -9 4 10 6 10 6 1 1 -7 10 -13 22 -13 13 0 18 -4 13 -12 -5 -9
-2 -9 9 1 11 9 17 10 17 2 0 -6 9 -11 20 -11 11 0 20 -4 20 -10 0 -5 5 -10 11
-10 5 0 7 6 4 12 -4 7 3 2 15 -12 12 -14 24 -24 26 -22 13 8 34 0 28 -10 -5
-8 -2 -8 10 1 9 8 16 10 15 5 -4 -23 2 -33 18 -27 12 5 15 2 10 -10 -5 -15 -3
-16 12 -7 17 8 19 6 16 -15 -2 -20 1 -23 11 -14 9 8 15 6 22 -8 11 -20 6 -84
-7 -92 -4 -4 -7 -14 -5 -24 2 -13 -2 -17 -13 -13 -13 5 -14 4 -4 -8 11 -13 9
-15 -8 -11 -12 2 -21 0 -21 -5 0 -4 -16 -4 -34 0 -19 4 -37 5 -40 2 -4 -3 -6
-1 -6 5 0 6 -47 11 -117 12 -65 1 -119 6 -121 12 -2 5 -8 9 -13 9 -6 0 -7 -6
-3 -12 6 -10 4 -10 -7 0 -17 15 -264 18 -254 2 8 -13 -18 -8 -27 5 -5 6 -8 5
-8 -2 0 -7 -7 -13 -16 -13 -8 0 -12 -5 -9 -10 8 -13 -17 -9 -26 4 -4 5 -10 -1
-13 -12 -4 -11 -18 -23 -31 -26 -14 -4 -25 -11 -25 -17 0 -7 6 -6 18 2 15 13
16 12 3 -4 -8 -10 -20 -16 -28 -13 -9 4 -11 1 -7 -6 5 -8 2 -9 -11 -4 -15 5
-16 4 -6 -8 10 -12 8 -17 -8 -25 -12 -7 -18 -17 -15 -26 4 -8 1 -15 -6 -15
-10 0 -10 -3 -1 -14 9 -10 9 -16 1 -21 -8 -5 -8 -10 0 -20 7 -9 8 -15 1 -19
-7 -5 -7 -15 -1 -31 6 -16 6 -25 0 -25 -6 0 -6 -9 -1 -22 4 -13 6 -29 3 -37
-3 -10 0 -11 9 -5 12 7 12 5 0 -9 -11 -14 -11 -18 3 -23 10 -4 15 -13 12 -20
-3 -9 1 -14 12 -14 13 0 14 -2 4 -9 -11 -7 -10 -9 3 -15 9 -3 13 -10 10 -16
-4 -6 1 -7 12 -3 15 5 16 3 6 -8 -7 -7 -13 -18 -13 -23 0 -6 4 -5 9 3 7 10 12
11 27 1 15 -9 16 -10 2 -6 -12 3 -15 1 -11 -9 3 -8 9 -12 14 -9 5 3 9 -3 9
-13 0 -15 2 -16 11 -3 9 12 10 10 6 -8 -5 -20 -3 -21 10 -10 14 11 15 10 9
-12 -5 -17 -4 -21 2 -11 8 11 16 7 42 -18 18 -17 41 -31 51 -31 13 0 17 -5 13
-17 -5 -15 -3 -15 10 1 9 11 17 17 17 13 1 -4 2 -12 3 -19 2 -16 26 -22 27 -6
0 7 4 3 9 -10 5 -12 15 -22 22 -22 9 0 9 3 -2 10 -11 7 -12 10 -2 10 8 0 16
-9 19 -21 4 -14 8 -17 13 -9 4 7 13 9 19 6 6 -4 9 -11 6 -16 -3 -4 4 -6 15 -3
11 3 20 0 20 -6 0 -6 5 -11 11 -11 5 0 7 6 4 13 -4 6 2 3 12 -9 10 -11 26 -20
36 -18 9 1 21 -5 27 -14 5 -10 10 -12 10 -6 0 6 7 11 15 11 9 0 14 -6 11 -12
-3 -8 4 -10 20 -7 16 3 24 0 24 -9 0 -11 3 -11 11 1 8 11 12 12 16 3 2 -7 18
-13 34 -13 16 0 29 -4 29 -10 0 -5 5 -10 11 -10 5 0 7 6 3 13 -6 10 -4 10 7 0
7 -7 34 -13 59 -13 25 0 52 -6 59 -13 11 -9 13 -9 7 1 -4 6 -2 12 3 12 6 0 11
-4 11 -10 0 -5 18 -10 40 -10 22 0 40 -4 40 -10 0 -5 5 -10 11 -10 5 0 7 6 3
13 -6 9 -4 9 7 0 9 -9 50 -13 131 -13 88 0 118 -3 118 -12 0 -9 4 -8 11 2 8
11 12 12 16 3 6 -17 888 -19 898 -3 3 5 12 10 18 10 7 0 6 -4 -3 -10 -9 -6
-10 -10 -3 -10 6 0 15 5 18 10 3 6 44 10 90 10 57 0 85 4 88 13 4 9 8 9 15 -2
6 -9 11 -9 13 -2 2 6 28 12 57 13 28 2 52 6 52 10 0 5 18 8 40 8 25 0 40 5 40
13 0 8 4 7 10 -3 6 -10 10 -11 10 -2 0 7 15 12 41 12 29 0 38 3 33 13 -5 8 -2
8 9 -2 12 -9 17 -10 17 -2 0 7 4 10 9 7 5 -3 12 1 15 9 5 13 10 14 27 4 15 -8
19 -8 15 0 -5 7 7 11 34 11 23 0 39 4 36 8 -3 5 1 9 9 9 8 0 12 -4 9 -9 -3 -4
2 -5 10 -2 9 3 16 11 16 16 0 6 6 6 14 -1 11 -9 15 -9 18 0 2 6 18 12 35 13
17 0 31 3 31 6 -1 18 4 21 19 9 9 -8 14 -9 11 -4 -3 6 0 16 8 23 11 10 14 10
14 0 0 -11 2 -11 9 0 4 7 18 14 29 15 12 1 22 8 23 17 0 10 3 9 9 -5 5 -11 9
-15 9 -10 1 6 10 16 22 23 12 8 18 9 14 3 -11 -19 10 -12 24 8 8 11 22 18 32
16 9 -2 20 3 23 12 5 12 9 13 20 4 11 -10 18 -7 30 11 14 19 18 21 26 8 8 -13
10 -13 10 2 0 9 5 20 12 24 7 4 8 3 4 -4 -4 -7 -3 -12 3 -12 5 0 13 10 16 21
6 17 9 19 16 8 8 -12 10 -12 18 1 5 8 7 19 3 25 -3 5 2 4 11 -4 14 -11 17 -11
17 0 0 12 2 12 9 0 7 -11 10 -9 16 9 5 15 10 19 15 10 5 -8 9 -7 14 5 5 15 9
15 23 4 15 -13 15 -12 3 11 -10 20 -10 23 0 13 11 -10 16 -9 27 5 8 9 12 11 8
5 -11 -22 9 -14 23 8 8 13 19 18 29 15 11 -5 14 -2 9 10 -6 15 -4 15 11 3 9
-8 14 -9 10 -3 -4 7 0 18 9 25 13 10 17 10 25 -2 7 -11 9 -8 10 11 0 14 3 19
6 13 2 -7 9 -13 14 -13 4 0 5 7 2 17 -5 12 -3 14 7 8 8 -5 20 1 32 16 11 13
17 18 13 12 -3 -7 -1 -13 4 -13 6 0 11 7 11 16 0 11 6 14 18 10 14 -5 13 -3
-3 10 -19 15 -19 15 7 10 19 -3 25 -1 22 8 -3 7 2 13 11 14 8 1 22 3 29 4 8 1
15 4 14 7 -3 29 4 39 22 36 12 -2 23 2 27 10 3 8 13 15 22 15 14 0 14 2 1 11
-12 9 -11 10 6 6 17 -4 20 -1 17 14 -3 11 0 19 6 19 7 0 9 -5 5 -12 -4 -7 -3
-8 5 -4 9 6 9 11 0 22 -10 12 -9 13 5 8 9 -3 16 -1 16 5 0 6 7 11 16 11 10 0
14 6 11 15 -4 8 -1 17 5 21 7 5 8 2 4 -7 -4 -8 -1 -5 8 5 8 10 13 23 9 29 -3
6 -1 7 5 3 6 -3 13 3 17 14 5 17 9 19 21 9 12 -10 13 -9 8 5 -4 10 0 18 10 22
9 3 16 13 16 20 0 8 7 17 15 20 8 4 15 13 15 21 0 8 4 12 9 9 4 -3 16 3 26 14
10 11 15 20 11 20 -4 0 6 12 21 28 16 15 31 32 33 37 3 6 8 9 13 7 4 -1 7 7 7
18 0 11 5 20 11 20 5 0 7 5 3 12 -5 7 -2 9 8 5 12 -4 15 0 13 18 -1 14 1 22 6
20 9 -6 40 35 34 46 -3 4 2 9 10 13 8 3 15 12 15 21 0 8 5 15 11 15 5 0 7 5 4
10 -3 6 -1 10 4 10 6 0 11 6 11 14 0 8 7 16 15 20 8 3 15 11 15 18 0 9 -3 8
-10 -2 -5 -8 -10 -10 -10 -4 0 16 35 45 45 37 4 -5 5 -2 0 6 -5 9 -2 19 10 28
11 7 13 13 7 13 -9 0 -8 7 3 24 9 13 14 30 13 37 -2 8 3 13 10 11 8 -1 11 2 8
7 -4 5 -2 12 4 16 6 4 8 11 5 16 -4 5 -1 9 5 9 6 0 8 5 5 10 -3 6 0 10 7 10
11 0 10 2 0 9 -11 7 -10 9 3 14 9 4 15 12 13 19 -1 7 3 23 10 35 7 13 11 23 8
23 -3 0 2 16 10 35 8 19 12 35 9 35 -3 0 1 13 10 30 9 16 13 30 9 30 -4 0 0 8
7 17 12 15 12 16 -1 8 -12 -7 -13 -6 -3 6 7 9 14 24 16 35 1 10 6 24 10 31 4
6 2 15 -4 19 -8 5 -8 9 1 14 7 4 14 31 15 59 1 28 8 58 16 68 9 11 10 14 2 9
-7 -4 -13 -2 -13 3 0 6 3 11 8 11 4 0 6 64 5 142 -2 188 -2 190 -11 184 -4 -2
-7 22 -7 55 0 32 -3 59 -8 59 -4 0 -6 4 -2 9 3 5 1 12 -4 15 -5 4 -8 17 -6 31
1 14 -2 25 -7 25 -6 0 -8 7 -5 15 4 8 2 17 -4 20 -5 4 -7 11 -4 16 4 5 1 9 -5
9 -6 0 -8 5 -5 10 3 6 1 10 -5 10 -6 0 -9 4 -5 9 3 5 1 12 -5 16 -5 3 -10 15
-10 25 0 10 -8 24 -17 29 -11 6 -13 11 -5 11 7 0 1 12 -15 28 -15 15 -31 26
-35 25 -4 -2 -7 0 -7 5 3 20 -3 32 -17 32 -8 0 -12 5 -9 10 3 6 -1 10 -9 10
-9 0 -16 7 -16 16 0 8 -4 13 -9 9 -5 -3 -13 4 -16 16 -4 11 -9 18 -12 15 -7
-6 -64 24 -75 39 -4 6 -8 6 -8 2 0 -5 -10 -1 -22 7 -12 9 -32 16 -45 16 -12 0
-25 5 -29 11 -4 8 -9 7 -15 -2 -6 -9 -9 -10 -9 -2 0 8 -29 11 -95 11 -52 0
-95 -3 -95 -6 0 -4 -10 -8 -23 -9 -33 -3 -51 -8 -64 -16 -7 -5 -13 -6 -13 -2
0 3 -16 -1 -35 -9 -19 -8 -35 -12 -35 -8 0 4 -4 1 -9 -6 -4 -7 -17 -15 -27
-16 -10 -2 -18 -9 -17 -14 2 -7 -4 -9 -14 -5 -11 4 -14 3 -9 -5 5 -8 0 -12
-14 -12 -12 0 -19 -4 -16 -9 3 -5 -2 -15 -11 -22 -14 -12 -16 -12 -8 1 8 13 6
13 -8 2 -9 -8 -22 -10 -29 -6 -7 4 -10 4 -7 0 4 -4 -33 -49 -82 -99 -115 -119
-121 -126 -114 -137 6 -9 -8 -14 -27 -11 -4 0 -4 -7 -1 -16 4 -11 3 -14 -5 -9
-8 5 -12 0 -12 -14 0 -12 -4 -18 -10 -15 -5 3 -10 1 -10 -4 0 -22 -2 -26 -16
-34 -8 -5 -12 -12 -9 -18 4 -5 -1 -12 -9 -15 -9 -3 -16 -12 -16 -20 0 -8 -4
-14 -9 -14 -5 0 -13 -10 -17 -22 -4 -13 -14 -28 -23 -35 -9 -7 -12 -13 -7 -13
6 0 1 -7 -10 -16 -10 -8 -14 -13 -8 -10 6 3 11 -1 11 -9 0 -8 -3 -12 -7 -10
-9 5 -40 -32 -33 -39 4 -3 1 -6 -6 -6 -7 0 -9 -4 -6 -10 3 -5 2 -10 -4 -10 -5
0 -13 -9 -16 -20 -4 -11 -11 -17 -17 -14 -6 4 -8 3 -5 -3 3 -5 -7 -29 -23 -53
-16 -24 -27 -47 -25 -51 3 -4 -2 -10 -11 -13 -9 -3 -12 -11 -8 -18 5 -9 2 -8
-9 1 -15 12 -17 12 -11 -3 4 -10 0 -18 -10 -22 -9 -3 -13 -10 -10 -15 3 -5 0
-9 -6 -9 -6 0 -8 -4 -5 -10 3 -5 2 -10 -4 -10 -5 0 -13 -9 -16 -20 -4 -11 -11
-17 -17 -14 -7 5 -9 1 -5 -9 4 -11 1 -17 -8 -17 -8 0 -20 -10 -26 -22 -18 -33
-71 -84 -83 -80 -6 2 -8 0 -4 -3 4 -4 3 -16 -3 -27 -6 -11 -13 -18 -15 -15 -7
7 -74 -58 -74 -71 0 -6 -5 -14 -12 -18 -7 -4 -8 -3 -4 4 12 20 -9 13 -24 -7
-7 -11 -17 -18 -22 -15 -4 3 -8 0 -8 -6 0 -6 -4 -9 -9 -6 -5 3 -11 -1 -15 -9
-3 -8 -12 -15 -21 -15 -8 0 -15 -3 -15 -7 0 -7 -65 -43 -135 -73 -16 -8 -40
-13 -52 -13 -13 0 -23 -4 -23 -10 0 -5 -9 -7 -20 -4 -11 3 -20 1 -20 -4 0 -6
-49 -9 -121 -8 -117 1 -189 13 -189 31 0 5 -4 7 -9 3 -5 -3 -12 -1 -16 5 -4 6
-11 8 -16 4 -5 -3 -9 -2 -8 3 4 21 -2 33 -18 33 -9 0 -13 3 -10 7 4 3 -4 16
-18 29 -15 14 -21 25 -14 29 6 4 3 12 -8 20 -16 12 -18 30 -18 170 0 116 4
158 13 164 7 4 12 12 11 17 -1 5 3 22 9 37 7 16 12 35 12 43 0 8 4 13 9 10 5
-3 12 1 15 10 4 10 2 13 -6 8 -7 -4 -8 -3 -4 4 4 7 15 12 24 12 14 0 14 2 3 9
-11 7 -10 10 4 18 9 5 16 13 16 16 -3 21 0 28 9 22 6 -3 10 0 10 8 0 7 8 22
18 33 10 10 19 24 20 29 1 6 8 10 15 10 6 1 11 7 9 14 -2 9 3 11 13 7 9 -3 13
-2 10 4 -3 6 1 13 9 16 9 3 13 10 10 15 -5 8 9 13 28 10 4 0 4 7 1 16 -5 13
-2 15 11 10 11 -4 15 -3 11 4 -8 12 26 40 39 32 5 -4 6 -1 2 5 -8 13 34 57 54
57 8 0 14 5 13 12 -2 8 4 10 14 6 12 -5 14 -3 8 7 -6 9 -4 12 6 8 15 -5 51 26
41 36 -3 3 4 6 16 6 12 0 30 9 39 19 9 11 20 18 24 16 4 -3 21 8 38 24 17 16
31 26 31 23 0 -3 10 3 23 14 12 11 34 26 49 33 15 8 25 18 22 23 -3 4 4 8 15
8 11 0 27 8 37 18 10 9 22 17 28 17 6 1 10 6 9 13 -2 7 4 12 12 12 8 0 15 5
15 10 0 6 9 10 21 10 11 0 17 5 14 10 -6 9 8 14 28 11 4 0 7 4 7 9 0 6 6 10
13 10 8 0 24 11 37 25 13 14 27 25 32 25 9 0 17 5 62 45 16 14 32 25 36 25 4
0 19 11 34 25 15 14 32 25 37 25 6 0 7 5 3 12 -5 8 -2 9 12 4 10 -4 15 -4 12
0 -7 6 15 34 26 34 3 0 15 9 26 20 12 12 26 18 32 14 7 -4 8 -3 4 4 -4 7 -3
12 2 12 5 0 23 14 41 30 17 17 31 27 31 24 0 -4 8 3 19 14 10 12 22 22 26 22
5 0 21 14 36 31 17 19 32 28 40 23 9 -5 11 -2 6 9 -3 9 1 21 11 29 13 11 15
11 8 -2 -4 -8 4 -2 18 13 16 17 31 25 39 21 6 -4 9 -4 5 0 -10 11 68 90 81 82
7 -5 8 -1 4 10 -4 12 -3 15 5 10 7 -4 12 -3 12 2 0 4 14 24 31 43 18 19 28 27
24 19 -5 -8 4 -4 18 9 28 26 36 40 14 25 -7 -5 -5 -2 5 8 10 9 18 22 18 30 0
10 3 9 10 -2 9 -13 14 -7 11 13 0 4 6 7 15 7 8 0 12 4 9 10 -6 9 8 14 28 11 5
-1 6 3 2 9 -3 5 -1 10 5 10 6 0 8 4 5 10 -6 9 7 14 27 11 4 0 4 7 1 16 -5 13
-2 15 11 10 11 -4 15 -3 11 4 -8 12 25 40 38 32 4 -2 7 -1 6 4 -3 20 2 34 11
28 6 -3 10 1 10 9 0 9 3 15 8 15 19 -3 25 2 12 11 -13 8 -12 10 3 10 9 0 17 5
17 11 0 5 4 8 9 5 4 -3 19 6 32 21 13 14 17 23 9 18 -8 -4 6 12 32 37 26 25
44 49 40 53 -4 5 1 5 11 2 10 -4 16 -3 13 1 -5 8 21 46 56 83 9 9 14 20 11 23
-4 3 -1 6 6 6 7 0 10 4 7 9 -3 5 1 12 10 15 9 4 14 9 11 13 -4 3 1 12 11 20 9
8 11 12 4 8 -7 -3 1 13 17 37 27 42 55 109 56 136 0 7 5 16 10 20 6 4 12 14
13 22 2 8 6 24 9 35 8 38 10 215 2 215 -5 0 -8 3 -7 8 1 4 -3 17 -10 30 -7 12
-10 22 -6 22 3 0 1 7 -6 15 -7 8 -9 15 -4 15 4 0 -1 7 -12 16 -10 8 -13 13 -7
9 7 -3 3 9 -10 28 -12 19 -26 32 -31 29 -5 -3 -6 2 -3 12 4 9 3 15 -2 12 -11
-7 -33 19 -24 28 4 4 -1 4 -12 0 -11 -4 -17 -4 -13 1 8 8 -28 45 -45 45 -5 0
-7 6 -4 13 3 8 -4 14 -16 15 -12 0 -23 6 -25 12 -2 5 -12 10 -23 10 -10 0 -19
5 -19 11 0 5 -5 7 -10 4 -6 -4 -17 -1 -25 5 -8 6 -19 9 -24 6 -5 -4 -13 -2
-16 4 -8 12 -287 10 -296 -2 -3 -4 -17 -9 -32 -10 -15 -1 -27 -6 -27 -11 0 -4
-4 -5 -10 -2 -5 3 -10 2 -10 -4 0 -5 -9 -8 -20 -6 -11 2 -22 -1 -25 -6 -4 -5
-11 -7 -16 -4 -5 4 -9 1 -9 -6 0 -7 -3 -9 -7 -6 -3 4 -12 2 -20 -4 -7 -6 -13
-8 -13 -3 0 5 -4 3 -9 -4 -4 -7 -14 -14 -22 -15 -8 -2 -25 -10 -39 -20 -13 -9
-32 -17 -42 -17 -10 0 -17 -6 -15 -12 1 -8 -7 -13 -20 -12 -13 1 -20 -3 -17
-7 3 -5 1 -9 -5 -9 -5 0 -17 -8 -27 -17 -9 -10 -24 -18 -32 -20 -9 -1 -24 -12
-34 -25 -10 -13 -18 -18 -18 -13 -1 6 -5 0 -10 -13 -5 -12 -21 -27 -35 -32
-14 -5 -25 -14 -25 -19 0 -12 -87 -101 -99 -101 -6 0 -15 -9 -21 -20 -6 -11
-35 -44 -65 -74 -30 -30 -55 -59 -55 -65 0 -6 -4 -11 -10 -11 -5 0 -10 -7 -10
-16 0 -8 -4 -13 -9 -9 -5 3 -12 -4 -16 -15 -4 -11 -11 -18 -16 -15 -5 3 -6 -2
-2 -11 4 -12 3 -15 -5 -10 -8 5 -12 0 -12 -12 0 -11 -11 -27 -25 -36 -14 -9
-23 -21 -20 -26 4 -6 1 -10 -5 -10 -6 0 -16 -13 -21 -30 -6 -16 -15 -27 -20
-24 -8 5 -11 -2 -8 -22 0 -3 -8 -12 -18 -20 -10 -7 -13 -14 -8 -14 7 0 7 -3 0
-8 -21 -15 -50 -56 -35 -48 8 4 6 0 -5 -9 -11 -9 -19 -21 -18 -26 2 -5 -2 -9
-7 -9 -6 0 -10 -6 -10 -14 0 -8 -7 -17 -16 -20 -8 -3 -12 -10 -9 -16 3 -5 1
-10 -4 -10 -6 0 -11 -7 -11 -16 0 -8 -4 -12 -10 -9 -5 3 -10 1 -10 -4 0 -22
-2 -26 -15 -34 -7 -4 -16 -21 -20 -37 -4 -16 -12 -33 -19 -37 -13 -9 -50 -64
-51 -76 0 -5 -7 -14 -16 -20 -9 -7 -18 -16 -20 -22 -2 -5 -7 -9 -11 -8 -4 2
-5 -4 -2 -12 3 -7 -3 -19 -14 -26 -12 -7 -18 -19 -14 -27 4 -11 1 -13 -8 -7
-10 6 -12 4 -7 -8 4 -12 2 -14 -10 -10 -10 4 -14 2 -9 -5 3 -6 -4 -18 -16 -26
-15 -11 -18 -16 -8 -17 9 0 6 -5 -8 -11 -15 -7 -21 -17 -17 -27 3 -8 3 -12 -1
-8 -6 6 -26 -13 -65 -60 -5 -7 -6 -13 -2 -13 4 0 -4 -8 -17 -17 -14 -10 -28
-17 -32 -16 -4 2 -5 -4 -2 -12 4 -9 -7 -22 -30 -36 -20 -11 -33 -25 -30 -30 5
-8 -9 -13 -28 -10 -4 0 -4 -7 -1 -16 5 -13 2 -15 -11 -10 -10 4 -15 3 -11 -3
7 -11 -30 -51 -39 -43 -3 4 -6 1 -6 -6 0 -7 -4 -9 -10 -6 -5 3 -10 -2 -10 -12
0 -14 -2 -15 -9 -4 -7 11 -10 9 -16 -8 -6 -19 -17 -25 -37 -22 -5 0 -8 -6 -8
-15 0 -8 -4 -13 -9 -9 -6 3 -14 -3 -20 -12 -6 -10 -11 -14 -11 -9 0 5 -9 1
-19 -8 -11 -10 -25 -15 -30 -11 -6 3 -11 1 -11 -4 0 -11 -76 -51 -104 -55 -9
-1 -19 -5 -22 -9 -4 -4 -24 -7 -45 -7 -47 0 -48 3 -45 143 2 75 7 111 16 117
7 4 10 12 6 18 -3 6 2 18 11 28 10 10 18 22 19 28 2 24 28 65 37 59 6 -3 7 -1
4 4 -4 6 4 23 18 39 13 15 22 31 19 35 -2 4 3 10 11 13 8 3 14 9 13 13 -2 4 0
8 3 8 8 0 32 26 52 58 10 15 21 26 25 24 9 -5 42 30 35 37 -6 6 12 10 29 7 4
0 4 7 1 16 -5 13 -2 15 11 10 11 -4 15 -3 10 4 -6 11 34 46 48 42 4 -2 4 5 1
14 -4 11 -3 14 5 9 7 -4 12 -1 12 8 0 8 5 18 12 22 7 5 9 2 4 -7 -4 -8 2 -3
13 11 11 14 21 21 21 16 0 -5 9 3 20 17 13 17 27 24 38 21 14 -5 15 -4 2 5
-16 11 -10 21 17 25 11 2 17 10 15 21 -2 10 1 14 7 11 6 -4 16 2 23 14 7 11
19 20 26 20 7 0 15 7 18 15 4 8 9 13 13 11 3 -2 17 8 31 22 14 14 18 21 10 16
-9 -5 -7 -1 5 10 11 10 19 22 18 27 -2 5 4 6 11 3 8 -3 19 3 26 15 6 12 17 21
25 21 7 0 17 9 20 20 4 11 10 18 15 15 5 -3 12 4 15 16 4 11 21 29 38 40 18
10 29 19 26 19 -4 0 9 16 27 36 19 19 38 32 44 29 6 -4 10 -3 9 2 -3 14 13 43
21 38 4 -3 13 2 20 10 11 13 10 15 -6 9 -15 -4 -16 -4 -4 4 8 6 18 9 23 9 4
-1 16 13 28 32 11 18 29 35 39 38 11 3 22 14 26 25 3 11 8 17 12 14 3 -3 14 8
24 25 12 20 24 29 34 25 8 -3 12 -1 9 4 -3 5 6 19 20 32 14 12 25 28 25 35 0
7 5 13 11 13 16 0 58 47 50 56 -3 4 2 4 12 1 10 -4 16 -3 12 2 -3 5 3 16 13
23 11 7 21 18 23 23 2 6 8 9 13 7 5 -2 4 4 -4 12 -12 16 -4 22 23 17 5 -1 6 3
3 8 -4 5 2 14 11 20 10 5 17 12 15 16 -4 9 25 35 32 27 4 -3 4 2 0 12 -4 11
-3 17 2 14 5 -3 15 0 22 8 7 8 8 14 2 14 -5 0 -2 8 8 18 11 12 20 14 24 8 4
-6 8 -2 8 10 0 12 7 25 16 28 8 3 12 10 9 16 -3 5 -2 10 3 10 5 0 15 11 22 25
7 13 18 23 24 22 6 -1 10 6 8 17 -2 11 1 15 7 11 6 -3 11 0 11 8 0 8 7 17 15
21 8 3 15 11 15 17 0 7 8 18 18 26 10 9 11 11 2 7 -8 -4 2 9 23 29 21 20 34
37 28 37 -6 0 -1 10 11 22 13 13 27 22 31 20 5 -1 6 2 3 7 -4 5 1 16 9 25 9 8
17 19 18 23 1 4 6 7 11 5 5 -2 4 3 -3 12 -10 12 -8 16 8 21 19 6 22 11 20 31
0 3 11 14 26 25 14 12 23 24 20 29 -3 5 7 22 21 40 15 17 24 33 21 36 -3 3 6
17 19 31 13 14 21 29 18 34 -3 5 2 12 10 15 9 3 13 10 10 15 -3 5 0 9 6 9 6 0
8 5 5 10 -3 6 1 13 9 16 9 3 14 10 11 14 -3 5 2 15 10 23 8 9 15 20 15 26 0 6
4 11 8 11 4 0 8 9 9 20 1 11 8 27 16 35 8 8 25 39 38 70 12 30 27 55 31 55 5
0 6 5 3 10 -3 6 -2 10 3 10 5 0 14 18 21 40 6 21 18 46 27 55 8 8 12 15 7 15
-4 0 -1 5 7 10 11 7 12 10 2 10 -10 0 -9 4 3 16 9 9 14 23 11 31 -3 7 1 16 9
19 8 4 12 10 9 15 -3 5 1 9 8 9 11 0 10 2 0 9 -11 7 -11 9 1 14 8 3 14 16 13
29 0 13 7 31 18 42 14 14 15 20 6 26 -9 6 -7 11 6 19 11 6 15 11 10 11 -5 0
-2 8 5 17 12 15 12 16 -1 8 -12 -7 -13 -6 -3 6 6 8 13 28 16 46 3 17 8 37 12
44 12 19 12 200 0 207 -5 4 -11 16 -12 27 -1 18 -9 53 -13 65 -1 3 -2 8 -1 13
0 4 -4 7 -10 7 -6 0 -8 9 -4 21 4 12 3 19 -1 16 -10 -5 -36 18 -28 26 2 2 -2
10 -11 17 -8 7 -15 17 -15 22 0 15 -27 38 -35 30 -5 -4 -5 1 -2 11 4 10 3 16
-1 13 -9 -6 -48 35 -44 46 1 4 -6 4 -15 1 -12 -5 -15 -2 -10 10 4 10 2 16 -6
14 -7 -1 -11 4 -9 11 1 8 -2 11 -7 7 -6 -3 -18 3 -28 15 -10 11 -21 20 -26 20
-5 0 -15 7 -24 15 -8 8 -19 13 -24 10 -5 -4 -9 -1 -9 4 0 6 -9 11 -20 11 -11
0 -20 4 -20 10 0 5 -16 12 -35 16 -19 3 -35 9 -35 13 0 4 -6 8 -12 9 -7 0 -24
3 -38 7 -14 4 -77 8 -140 10 -111 3 -218 -12 -263 -36 -10 -5 -23 -7 -29 -3
-7 4 -8 3 -4 -4 4 -7 -4 -14 -21 -18 -15 -4 -34 -11 -41 -17 -7 -5 -15 -7 -18
-4 -3 2 -17 -6 -31 -19 -20 -19 -28 -21 -35 -12 -5 9 -8 8 -8 -6 0 -12 -5 -16
-14 -13 -9 4 -17 -2 -21 -14 -4 -11 -9 -18 -11 -16 -5 4 -33 -17 -75 -55 -10
-10 -23 -18 -29 -18 -5 0 -10 -7 -10 -15 0 -8 -5 -15 -11 -15 -5 0 -7 5 -3 12
4 7 3 8 -4 4 -6 -4 -8 -14 -5 -24 3 -9 3 -14 -1 -11 -10 9 -95 -74 -88 -85 3
-5 -3 -6 -14 -2 -10 4 -15 4 -11 0 4 -4 -3 -18 -15 -31 -12 -13 -18 -23 -15
-23 4 0 -1 -8 -10 -18 -10 -11 -22 -17 -27 -14 -5 3 -6 0 -3 -5 4 -6 -2 -21
-13 -33 -11 -12 -22 -31 -25 -41 -4 -11 -11 -19 -16 -19 -6 0 -7 -4 -4 -10 3
-5 2 -10 -3 -10 -5 0 -17 -12 -27 -26 -9 -15 -12 -23 -6 -19 6 3 -2 -13 -18
-37 -16 -23 -27 -46 -25 -49 2 -4 -3 -10 -12 -13 -9 -4 -14 -13 -10 -22 3 -8
2 -13 -3 -10 -7 5 -20 -19 -25 -47 0 -4 -5 -11 -11 -15 -5 -4 -11 -16 -13 -26
-2 -10 -10 -25 -17 -33 -8 -7 -12 -20 -9 -28 4 -8 1 -15 -6 -15 -6 0 -8 -4 -5
-10 3 -5 1 -10 -5 -10 -6 0 -8 -5 -5 -10 3 -6 0 -13 -9 -16 -8 -3 -12 -12 -9
-20 3 -8 0 -14 -7 -14 -6 0 -8 -4 -5 -10 3 -5 2 -10 -4 -10 -6 0 -8 -7 -5 -15
4 -8 1 -15 -5 -15 -7 0 -11 -6 -10 -12 3 -18 -23 -71 -39 -81 -11 -7 -11 -11
0 -25 8 -10 9 -13 1 -9 -10 6 -28 -25 -25 -43 0 -3 -7 -14 -16 -24 -10 -11
-11 -16 -3 -11 8 5 7 -2 -4 -19 -10 -15 -15 -29 -12 -33 3 -3 -4 -14 -16 -24
-16 -13 -18 -18 -7 -19 13 0 13 -2 1 -9 -8 -5 -16 -19 -18 -32 -2 -12 -11 -28
-21 -36 -11 -9 -11 -12 -2 -7 12 6 13 4 3 -7 -7 -7 -13 -21 -13 -31 0 -10 -4
-18 -9 -18 -8 0 -24 -37 -22 -52 1 -5 -4 -8 -10 -8 -6 0 -9 -7 -5 -15 3 -8 1
-15 -5 -15 -6 0 -8 -4 -4 -9 3 -5 1 -12 -5 -16 -5 -3 -10 -15 -10 -26 0 -10
-6 -19 -13 -19 -7 0 -14 -8 -15 -17 -5 -50 -10 -67 -20 -71 -7 -2 -10 -8 -6
-13 3 -5 0 -9 -7 -9 -7 0 -10 -3 -6 -6 3 -4 -1 -13 -9 -22 -13 -12 -13 -16 -2
-23 10 -7 10 -9 1 -9 -7 0 -13 -7 -13 -15 0 -8 -4 -15 -10 -15 -5 0 -10 -9
-10 -21 0 -11 -4 -18 -8 -15 -4 2 -8 -3 -9 -12 -2 -31 -9 -54 -19 -60 -5 -4
-10 -13 -12 -21 -2 -8 -9 -29 -17 -48 -8 -18 -15 -37 -16 -41 -1 -4 -9 -18
-19 -32 -9 -14 -15 -31 -13 -37 3 -7 -1 -13 -7 -13 -7 0 -10 -7 -6 -15 3 -8 0
-15 -7 -15 -8 0 -6 -4 3 -10 13 -8 12 -10 -3 -10 -10 0 -15 -4 -12 -10 3 -5 1
-10 -5 -10 -6 0 -8 -5 -5 -10 3 -6 -1 -13 -10 -16 -10 -4 -12 -10 -6 -18 10
-12 -12 -39 -24 -28 -4 4 -6 2 -4 -3 4 -18 -13 -85 -23 -85 -5 0 -8 -8 -6 -17
2 -12 -2 -17 -12 -15 -8 2 -12 0 -8 -3 4 -4 0 -24 -8 -43 -8 -20 -12 -42 -9
-49 2 -8 1 -12 -4 -9 -10 6 -36 -42 -40 -75 0 -5 -5 -8 -10 -5 -11 7 -23 -22
-15 -35 3 -5 0 -9 -6 -9 -7 0 -9 -7 -6 -16 3 -8 2 -12 -4 -9 -6 3 -10 0 -10
-7 0 -8 -3 -9 -8 -3 -4 6 -15 15 -26 20 -13 7 -19 24 -21 52 -1 22 -6 47 -11
54 -5 8 -9 30 -10 49 -1 19 -2 35 -4 35 -9 0 -12 76 -14 293 -1 138 2 252 7
252 4 0 5 5 2 10 -3 6 -2 10 2 10 5 0 8 26 8 58 -1 31 3 68 10 82 6 14 10 39
9 55 -1 17 3 38 8 49 7 13 7 16 -1 12 -7 -5 -9 -1 -5 8 3 9 9 16 13 16 4 0 6
15 6 33 -1 17 3 38 9 46 9 12 8 13 -2 7 -12 -7 -12 -4 -2 14 6 12 13 39 15 59
1 20 7 54 12 76 5 22 9 57 9 77 -1 20 2 34 6 32 5 -3 9 4 9 15 2 29 6 61 8 64
7 7 14 59 15 104 0 29 4 53 8 53 5 0 7 3 7 8 -1 4 0 9 1 12 1 3 4 19 6 35 3
32 11 70 14 70 1 0 3 27 5 60 1 33 4 60 5 60 14 0 21 473 7 492 -5 7 -7 20 -3
28 3 8 2 15 -2 15 -4 0 -8 19 -9 42 -2 23 -8 45 -14 49 -6 4 -9 12 -5 18 4 6
1 21 -5 33 -7 13 -14 37 -16 53 -2 17 -8 32 -13 33 -6 2 -8 7 -5 12 3 5 -2 16
-11 24 -10 11 -11 16 -3 16 7 0 3 8 -8 18 -11 9 -19 25 -17 34 1 9 -4 19 -12
22 -8 3 -14 10 -14 16 0 16 -26 40 -34 32 -4 -3 -4 1 -1 10 3 8 -1 23 -10 32
-9 9 -13 16 -8 17 4 0 -2 4 -15 10 -13 5 -20 13 -17 19 3 5 2 10 -3 10 -15 0
-72 56 -65 64 3 3 -1 6 -11 6 -9 0 -14 5 -11 10 6 9 -8 15 -29 11 -5 -1 -6 5
-2 14 4 12 -3 19 -24 27 -17 5 -30 17 -30 26 0 14 -2 14 -9 3 -7 -11 -10 -9
-16 8 -3 12 -10 19 -15 16 -5 -3 -15 2 -24 10 -8 9 -18 16 -20 16 -17 0 -66
22 -66 30 0 4 -7 6 -15 3 -8 -3 -24 1 -36 10 -17 11 -26 13 -36 4 -9 -7 -13
-7 -13 0 0 14 -217 14 -226 1z m-413 -7266 c13 -16 12 -17 -3 -4 -17 13 -22
21 -14 21 2 0 10 -8 17 -17z"/>
<path d="M4609 4373 c-13 -16 -12 -17 4 -4 9 7 17 15 17 17 0 8 -8 3 -21 -13z"/>
<path d="M2830 1001 c0 -6 4 -13 10 -16 6 -3 7 1 4 9 -7 18 -14 21 -14 7z"/>
</g>
</svg>
