<?xml version="1.0" standalone="no"?>
<!DOCTYPE svg PUBLIC "-//W3C//DTD SVG 20010904//EN"
 "http://www.w3.org/TR/2001/REC-SVG-20010904/DTD/svg10.dtd">
<svg version="1.0" xmlns="http://www.w3.org/2000/svg"
 width="1032.000000pt" height="1032.000000pt" viewBox="0 0 1032.000000 1032.000000"
 preserveAspectRatio="xMidYMid meet">
<metadata>
Created by potrace 1.11, written by Peter Selinger 2001-2013
</metadata>
<g transform="translate(0.000000,1032.000000) scale(0.100000,-0.100000)"
fill="#000000" stroke="none">
<path d="M4918 7290 c-2 -6 -196 -11 -513 -15 -280 -3 -544 -8 -585 -11 -41
-3 -79 -6 -85 -6 -5 -1 -25 2 -42 6 -18 4 -33 4 -33 -1 0 -4 -41 -8 -90 -8
-50 0 -90 3 -90 8 0 11 -28 9 -32 -3 -3 -9 -169 -18 -376 -20 -40 0 -71 -4
-68 -8 2 -4 -39 -7 -92 -7 -129 0 -433 -14 -443 -21 -5 -2 -77 -7 -161 -10
-83 -3 -157 -8 -162 -12 -10 -6 -40 -5 -116 1 -14 1 -24 -2 -23 -8 1 -6 -22
-9 -58 -7 -32 2 -59 7 -59 11 0 4 -7 8 -16 8 -9 0 -14 -7 -11 -16 3 -13 -6
-16 -52 -15 -30 1 -65 -2 -76 -6 -11 -4 -31 -3 -44 2 -16 6 -34 5 -51 -2 -14
-6 -55 -12 -90 -15 -36 -2 -83 -6 -105 -8 -22 -3 -83 -8 -135 -11 -52 -3 -106
-8 -120 -11 -39 -8 -132 -17 -159 -16 -12 0 -28 -2 -34 -6 -16 -10 -61 -10
-68 1 -9 11 -51 -3 -44 -15 4 -5 -5 -5 -20 1 -36 14 -48 13 -42 -3 4 -10 -3
-12 -25 -9 -21 3 -29 1 -24 -7 4 -7 1 -9 -8 -5 -19 7 -86 -14 -86 -27 0 -6 -5
-7 -10 -4 -6 3 -10 2 -10 -3 0 -6 -8 -9 -17 -8 -11 0 -17 -5 -15 -14 2 -8 0
-12 -3 -8 -11 11 -47 -11 -39 -24 4 -7 3 -8 -5 -4 -6 4 -14 0 -17 -8 -3 -9
-12 -16 -19 -16 -7 0 -15 -7 -19 -15 -3 -8 -15 -15 -26 -15 -22 0 -27 -27 -10
-48 6 -6 7 -10 4 -7 -4 2 -12 -2 -19 -9 -14 -14 -20 -210 -7 -202 4 2 8 -10 8
-27 1 -16 8 -35 15 -41 8 -6 15 -17 17 -24 4 -23 34 -62 42 -57 5 3 6 -4 3
-14 -8 -30 14 -61 43 -61 27 0 104 -36 104 -49 0 -4 20 -8 44 -8 24 -1 54 -6
66 -13 12 -6 29 -9 38 -5 36 14 115 25 138 19 31 -8 31 -20 -2 -28 -14 -4 -37
-18 -50 -31 -13 -13 -24 -21 -24 -18 0 4 -11 -4 -25 -17 -14 -13 -25 -29 -25
-35 0 -6 -10 -11 -21 -11 -17 1 -23 -6 -26 -29 -2 -16 -11 -37 -19 -46 -8 -8
-11 -19 -7 -22 3 -4 -1 -7 -9 -7 -15 0 -28 -19 -28 -41 0 -5 10 -9 23 -9 13 0
17 -3 11 -8 -6 -4 -13 -48 -16 -98 l-5 -92 37 -36 c21 -20 43 -50 50 -66 9
-21 19 -30 36 -30 17 0 25 -7 30 -25 4 -14 9 -24 12 -21 3 3 11 -2 18 -12 10
-14 16 -15 32 -6 13 9 23 9 38 1 10 -7 39 -12 64 -13 24 -1 46 -7 48 -13 2 -6
13 -11 23 -11 14 0 18 4 13 13 -5 8 -3 8 9 -2 9 -7 26 -11 38 -8 12 3 18 3 15
0 -9 -9 14 -33 31 -33 9 0 13 6 10 14 -4 10 -1 13 9 9 7 -3 14 -8 14 -12 0 -3
19 -7 42 -8 61 -3 138 -25 138 -40 0 -19 60 -16 83 5 11 9 17 12 14 6 -5 -8
11 -14 48 -19 30 -3 55 -10 55 -13 0 -6 67 -12 173 -16 20 0 37 -4 37 -9 0
-16 52 -27 86 -18 20 6 36 6 40 0 3 -5 27 -9 54 -9 30 0 50 -5 53 -12 2 -8 22
-13 50 -13 32 0 47 -4 47 -13 0 -17 66 -13 96 5 19 12 24 11 38 -2 11 -12 25
-15 46 -10 16 4 45 2 63 -4 21 -7 44 -8 64 -2 18 5 33 6 35 1 2 -5 40 -10 85
-12 46 -2 83 -6 83 -10 0 -14 30 -9 30 5 1 7 6 5 14 -6 11 -15 20 -16 54 -8
30 6 48 5 67 -5 18 -9 38 -11 63 -6 21 4 43 7 50 6 6 -1 17 -2 22 -3 6 0 10
-12 10 -26 0 -14 6 -25 12 -25 7 0 1 -11 -13 -25 l-25 -26 -360 -4 c-197 -2
-438 -6 -534 -9 -96 -3 -265 -8 -375 -11 -110 -2 -227 -7 -260 -10 -33 -3
-105 -8 -160 -10 -100 -4 -267 -13 -380 -21 -125 -8 -183 -12 -295 -18 -63 -4
-122 -9 -130 -11 -8 -3 -52 -7 -97 -10 -46 -3 -95 -11 -110 -17 -16 -6 -33
-12 -39 -13 -33 -7 -54 -17 -54 -26 0 -6 -4 -8 -9 -5 -12 8 -93 -54 -107 -82
-6 -12 -13 -20 -16 -17 -9 9 -39 -45 -32 -57 5 -7 3 -8 -6 -3 -10 6 -12 4 -7
-9 4 -10 3 -15 -3 -11 -6 3 -11 0 -12 -7 0 -7 -2 -24 -4 -38 -1 -14 -6 -43
-10 -64 -4 -25 -4 -37 3 -33 5 3 8 -8 7 -29 -2 -19 1 -34 7 -34 6 0 8 -4 5 -9
-8 -13 4 -42 15 -35 5 3 6 -1 3 -9 -3 -8 2 -21 10 -30 9 -9 16 -19 16 -22 0
-18 100 -106 111 -99 7 4 10 3 6 -3 -10 -16 82 -56 135 -59 26 -1 57 -5 68 -9
11 -3 25 -3 30 0 6 4 48 9 93 12 44 2 85 7 89 9 4 3 67 7 139 10 73 2 136 7
140 10 5 2 88 7 186 10 98 3 185 7 193 10 8 3 89 7 180 10 91 2 179 7 195 9
17 3 131 8 255 10 124 3 272 8 330 10 58 3 161 6 229 6 134 1 146 -3 135 -52
-15 -62 -11 -277 6 -369 22 -120 23 -121 55 -202 66 -166 170 -314 325 -468
252 -249 569 -408 910 -458 60 -9 292 -8 357 1 65 9 153 26 173 34 8 4 17 7
20 8 93 23 245 97 358 172 88 59 231 195 278 266 16 23 31 44 34 47 32 31 131
253 145 325 3 11 9 40 15 65 6 25 12 61 14 80 3 19 5 35 6 35 10 0 13 284 6
451 -5 101 -5 102 17 96 12 -3 26 -11 30 -19 11 -18 37 -17 37 2 0 8 3 15 8
16 59 6 473 19 654 19 65 1 120 5 123 10 3 5 17 5 33 -1 17 -6 46 -6 77 0 28
5 80 8 118 6 37 -2 67 1 67 5 0 8 108 14 240 12 35 -1 67 3 70 8 7 11 59 15
97 6 18 -4 40 -3 51 3 11 6 75 12 143 15 68 3 129 6 134 7 6 1 30 -1 54 -6 38
-6 43 -5 38 8 -4 12 -2 14 10 10 11 -5 14 -3 8 6 -6 10 -3 11 13 2 20 -11 68
-12 87 -2 5 3 25 5 45 4 19 0 41 4 48 10 9 7 16 7 24 -1 16 -16 38 -15 38 2 0
11 18 12 86 9 65 -3 89 -1 95 9 8 12 45 17 142 18 21 0 36 3 34 8 -3 4 14 7
37 8 24 0 51 4 62 9 10 4 55 7 99 7 58 0 85 4 97 15 12 11 27 13 54 8 30 -5
36 -4 31 9 -5 13 -2 13 19 4 19 -9 30 -9 45 0 10 7 32 12 47 12 16 0 32 3 35
6 9 10 77 11 77 2 0 -5 7 -8 15 -8 8 0 15 6 15 13 0 7 14 14 33 15 17 2 33 6
34 10 2 4 22 6 45 5 51 -2 156 16 164 28 3 5 16 9 29 9 13 0 26 6 28 13 4 9 6
9 6 0 1 -7 8 -13 17 -13 10 0 14 6 10 15 -4 12 -2 13 15 2 15 -9 21 -9 27 0 4
6 14 11 22 11 50 -3 72 3 66 17 -4 13 -2 13 14 5 26 -14 50 -13 50 3 0 8 6 14
13 15 44 3 93 17 100 29 4 7 14 13 20 13 7 0 19 9 27 20 8 11 21 20 30 20 8 0
26 12 39 25 13 14 34 28 48 31 15 4 22 12 19 20 -3 8 -1 14 5 14 6 0 17 6 25
14 7 8 25 24 40 35 14 11 26 29 27 40 1 11 3 18 6 15 8 -7 40 49 34 59 -3 6
-1 7 5 3 6 -3 13 3 17 14 3 11 13 20 21 20 9 0 15 12 16 35 2 56 3 60 11 66 4
3 10 23 12 44 3 22 9 43 14 48 11 11 2 90 -11 98 -7 4 -6 9 1 13 17 11 14 39
-5 32 -8 -3 -13 -2 -9 3 8 15 -6 42 -19 34 -6 -3 -8 -3 -4 2 11 11 -11 47 -24
39 -7 -4 -8 -3 -4 4 4 6 -2 17 -14 24 -11 7 -20 17 -20 23 0 9 -133 78 -155
81 -5 0 -23 6 -40 13 -16 7 -40 10 -52 8 -12 -2 -24 0 -25 5 -2 5 -47 11 -101
13 -53 2 -101 6 -106 9 -10 7 -310 28 -413 30 -55 1 -78 5 -78 14 0 14 -36 17
-45 3 -3 -6 -15 -8 -28 -5 -33 7 -304 18 -449 18 -69 1 -124 4 -122 8 2 3 -76
6 -175 5 -98 -1 -177 1 -175 4 2 3 -91 6 -207 6 -156 0 -213 3 -222 13 -10 10
-2 11 35 7 34 -3 51 0 59 10 10 11 14 11 29 -2 21 -19 49 -19 56 0 4 11 17 14
47 11 22 -2 54 0 71 5 17 5 69 12 116 15 136 9 163 12 202 22 25 7 38 6 41 -1
2 -6 17 -5 42 3 22 8 52 13 67 11 14 -1 29 2 32 8 5 7 13 7 26 -1 16 -10 25
-9 50 5 27 16 31 17 36 2 5 -12 14 -14 43 -9 20 4 39 11 42 16 3 5 17 4 33 -3
20 -9 29 -10 34 -2 4 6 20 15 35 18 21 6 27 4 27 -9 0 -9 7 -16 15 -16 8 0 15
5 15 10 0 6 9 10 21 10 15 0 19 5 15 15 -3 8 -1 15 4 15 6 0 10 -5 10 -11 0
-7 16 -9 48 -5 26 4 68 6 95 6 26 0 47 4 47 9 0 5 19 7 45 5 31 -4 45 -2 45 7
0 8 18 10 65 5 36 -3 65 -2 65 2 0 5 15 9 33 9 70 1 203 15 212 23 6 5 26 8
45 7 33 -1 105 9 119 17 3 2 37 7 74 10 38 3 78 11 89 17 15 8 19 8 14 0 -8
-12 36 -16 48 -4 3 4 14 8 24 9 87 11 120 15 141 14 15 0 21 5 18 13 -3 9 7
12 40 11 24 -1 47 -5 50 -8 11 -10 33 -7 30 5 -3 14 97 39 126 31 17 -4 19 -2
14 14 -6 16 -5 17 5 4 20 -24 55 -24 63 0 5 15 12 19 31 14 13 -3 24 -2 24 4
0 9 84 36 152 49 15 3 25 9 22 14 -3 5 2 6 10 3 9 -3 16 -1 16 5 0 6 6 11 13
11 18 0 49 35 40 44 -4 4 -1 5 7 2 16 -6 75 65 99 118 17 40 26 216 11 216 -6
0 -9 4 -6 9 8 12 -14 71 -26 71 -5 0 -6 5 -3 10 9 15 -14 41 -29 33 -6 -3 -8
-3 -4 2 12 13 -12 47 -28 41 -8 -3 -12 -1 -9 4 3 5 -14 24 -40 42 -25 17 -45
38 -45 45 0 17 -25 27 -42 17 -20 -13 -47 -12 -52 2 -5 13 -105 12 -127 -2 -8
-4 -9 -3 -5 5 6 9 -16 11 -93 9 -76 -2 -101 0 -101 10 0 16 -27 16 -32 0 -4
-10 -11 -10 -29 -2 -14 6 -59 8 -114 5 -65 -4 -98 -2 -118 7 -15 8 -35 11 -45
7 -24 -10 -201 -12 -195 -2 2 4 -29 7 -69 7 -79 0 -130 4 -179 15 -17 4 -29 3
-26 -1 3 -5 -28 -9 -69 -9 -41 0 -74 3 -74 7 0 7 -4 7 -170 7 -58 0 -132 5
-164 10 -32 6 -63 8 -68 5 -13 -8 -178 -10 -178 -2 0 4 -42 7 -92 7 -51 0
-181 3 -288 8 -107 4 -275 8 -373 8 -97 0 -177 3 -177 7 0 5 -84 8 -187 9
-261 1 -352 3 -348 9 2 3 -114 5 -256 5 -142 0 -259 4 -259 9 0 4 -12 5 -27 1
-36 -10 -298 -10 -342 0 -18 4 -31 3 -28 -1 5 -9 -29 -9 -201 1 -51 2 -91 1
-88 -3 2 -4 -24 -5 -57 -3 -156 10 -472 8 -479 -3 -5 -7 -8 -4 -8 7 0 18 -36
25 -42 7z m-784 -739 c27 -1 46 -4 42 -8 -3 -4 -24 -6 -46 -5 -22 2 -40 -1
-40 -5 0 -4 -37 -9 -82 -9 -46 -1 -94 -2 -108 -4 -45 -4 -53 -2 -38 14 9 9 40
14 92 14 43 1 80 3 82 5 2 2 14 3 26 1 13 -1 45 -3 72 -3z m81 -11 c-3 -5 -12
-10 -18 -10 -7 0 -6 4 3 10 19 12 23 12 15 0z m-456 -14 c15 -18 8 -20 -71
-17 -26 2 -52 0 -58 -4 -6 -3 -58 -8 -118 -11 -59 -3 -136 -7 -172 -9 -36 -3
-101 -6 -145 -8 -44 -3 -118 -7 -165 -11 -47 -3 -155 -8 -240 -10 -85 -2 -154
-8 -153 -13 1 -4 -35 -7 -80 -6 -44 0 -91 -3 -104 -8 -15 -6 -22 -5 -18 1 6 9
-75 6 -175 -7 -78 -10 -110 -10 -110 -1 0 11 -28 10 -32 -2 -3 -10 -195 -16
-205 -6 -4 3 3 6 15 6 14 0 22 6 22 16 0 14 8 16 51 11 33 -4 58 -2 72 6 24
14 42 14 71 2 10 -5 26 -4 35 1 9 6 46 9 84 8 45 -1 67 2 67 9 0 7 7 4 14 -5
16 -21 36 -23 36 -4 0 18 32 26 54 14 10 -5 25 -6 34 -2 27 11 111 21 106 12
-7 -10 108 -2 152 11 17 5 37 6 43 2 19 -12 91 -12 91 0 0 6 37 9 103 9 124
-2 203 3 212 12 4 4 17 2 28 -4 15 -7 34 -7 71 1 31 7 101 9 179 6 70 -3 127
-1 127 3 0 4 38 8 83 10 66 3 86 0 96 -12z m-2009 -107 c0 -13 48 -11 52 3 2
6 12 12 22 14 12 2 16 -3 14 -18 -3 -18 -12 -20 -118 -24 -213 -8 -278 -12
-292 -19 -7 -4 -5 1 5 11 17 18 65 25 210 28 26 1 47 4 47 8 0 9 32 15 48 10
6 -2 12 -8 12 -13z m-373 -16 c-4 -3 -2 -12 3 -18 8 -9 4 -11 -15 -7 -29 5
-33 18 -7 25 9 3 19 5 21 6 2 0 1 -2 -2 -6z m-97 -17 c0 -2 -7 -7 -16 -10 -8
-3 -12 -2 -9 4 6 10 25 14 25 6z m-101 -10 c-2 -2 -20 -6 -39 -10 -25 -4 -31
-3 -20 4 14 9 69 15 59 6z m-89 -10 c0 -3 -4 -8 -10 -11 -5 -3 -10 -1 -10 4 0
6 5 11 10 11 6 0 10 -2 10 -4z m2000 -985 c-14 -27 -27 -34 -36 -20 -4 8 -3 9
4 5 6 -3 16 3 22 14 6 11 13 20 16 20 2 0 0 -9 -6 -19z m1896 -58 c-9 -9 -106
-12 -111 -3 -2 4 23 7 57 8 34 1 58 -1 54 -5z m124 0 c0 -10 -78 -9 -87 1 -3
3 15 6 40 6 26 0 47 -3 47 -7z"/>
</g>
</svg>
